<svg t="1692179325147" class="icon" viewBox="0 0 1024 1024" version="1.1" xmlns="http://www.w3.org/2000/svg" p-id="1460" width="200" height="200"><path d="M682.666667 597.333333H341.333333c-119.466667 0-213.333333 93.866667-213.333333 213.333334v85.333333c0 25.6 17.066667 42.666667 42.666667 42.666667s42.666667-17.066667 42.666666-42.666667v-85.333333c0-72.533333 55.466667-128 128-128h341.333334c72.533333 0 128 55.466667 128 128v85.333333c0 25.6 17.066667 42.666667 42.666666 42.666667s42.666667-17.066667 42.666667-42.666667v-85.333333c0-119.466667-93.866667-213.333333-213.333333-213.333334zM512 512c119.466667 0 213.333333-93.866667 213.333333-213.333333s-93.866667-213.333333-213.333333-213.333334-213.333333 93.866667-213.333333 213.333334 93.866667 213.333333 213.333333 213.333333z m0-341.333333c72.533333 0 128 55.466667 128 128s-55.466667 128-128 128-128-55.466667-128-128 55.466667-128 128-128z" p-id="1461"></path></svg>